# xmcd CD database file
# Copyright (C) 1997 Ti Kan
# 
# Track frame offsets:
#     182
#     13735
#     26760
#     40512
#     53615
#     66110
#     77895
#     90807
#     102902
#     115097
#     128965
#     139932
#     151825
#     162572
#     172875
#     184687
#     195967
#     209640
#     220982
#     231347
#     241720
#     251990
#     263352
#     276292
# 
# Disc length: 3828 seconds
# 
# Revision: 1
# Processed by: cddbd v1.4b41PL1 Copyright (c) Steve Scherf et al.
# Submitted via: DiscPlay 4.0.4
# 
DISCID=440ef218
DTITLE=Robert Johnson - Hellhound On My Trail
DYEAR=1900
DGENRE=
TTITLE0=I Believe I'll Dust My Broom
TTITLE1=Kindhearted Woman Blues
TTITLE2=Terraplane Blues
TTITLE3=32-20 Blues
TTITLE4=Last Fair Deal Gone Down
TTITLE5=Dead Shrimp Blues
TTITLE6=Ramblin' On My Mind
TTITLE7=Cross Road Blues
TTITLE8=Come On In My Kitchen
TTITLE9=They're Red Hot
TTITLE10=From Four 'Til Late
TTITLE11=Hellhound On My Trail
TTITLE12=Malted Milk
TTITLE13=Milkcow's Calf Blues
TTITLE14=I'm a Steady Rollin' Man
TTITLE15=Stones In My Passway
TTITLE16=Sweet Home Chicago
TTITLE17=Walking Blues
TTITLE18=Stop Breakin' Down Blues
TTITLE19=Honeymoon Blues
TTITLE20=Little Queen of Spades
TTITLE21=Me and the Devil Blues
TTITLE22=Preaching Blues (Up Jumped the Devil)
TTITLE23=Love in Vain
EXTD=
EXTT0=
EXTT1=
EXTT2=
EXTT3=
EXTT4=
EXTT5=
EXTT6=
EXTT7=
EXTT8=
EXTT9=
EXTT10=
EXTT11=
EXTT12=
EXTT13=
EXTT14=
EXTT15=
EXTT16=
EXTT17=
EXTT18=
EXTT19=
EXTT20=
EXTT21=
EXTT22=
EXTT23=
PLAYORDER=
